<?xml version="1.0" encoding="UTF-8" standalone="no"?>
<!-- Created with Inkscape (http://www.inkscape.org/) -->

<svg
   width="1080"
   height="1080"
   viewBox="0 0 1080 1080"
   version="1.1"
   id="svg5"
   inkscape:version="1.2.2 (b0a8486541, 2022-12-01)"
   sodipodi:docname="logo.svg"
   xmlns:inkscape="http://www.inkscape.org/namespaces/inkscape"
   xmlns:sodipodi="http://sodipodi.sourceforge.net/DTD/sodipodi-0.dtd"
   xmlns="http://www.w3.org/2000/svg"
   xmlns:svg="http://www.w3.org/2000/svg">
  <sodipodi:namedview
     id="namedview7"
     pagecolor="#ffffff"
     bordercolor="#000000"
     borderopacity="0.25"
     inkscape:showpageshadow="2"
     inkscape:pageopacity="0.0"
     inkscape:pagecheckerboard="0"
     inkscape:deskcolor="#d1d1d1"
     inkscape:document-units="px"
     showgrid="false"
     inkscape:zoom="0.63047839"
     inkscape:cx="289.46273"
     inkscape:cy="490.10403"
     inkscape:window-width="1920"
     inkscape:window-height="998"
     inkscape:window-x="0"
     inkscape:window-y="0"
     inkscape:window-maximized="1"
     inkscape:current-layer="layer1" />
  <defs
     id="defs2" />
  <g
     inkscape:label="Layer 1"
     inkscape:groupmode="layer"
     id="layer1">
    <g
       inkscape:groupmode="layer"
       id="layer2"
       inkscape:label="Layer 2">
      <rect
         style="fill:#8bd8ff;fill-opacity:1"
         id="rect1467"
         width="1092.5514"
         height="1109.9297"
         x="-3.0907662"
         y="-10.790058"
         ry="21.796556" />
    </g>
    <path
       style="fill:#00efff;fill-opacity:1;stroke-width:1.52638"
       d=""
       id="path1411" />
    <g
       id="g4272"
       transform="matrix(1.2969385,0,0,1.3135746,-142.30449,-91.604914)">
      <path
         id="rect111"
         d="m 545.50499,458.6929 c 46.21101,0 105.98485,46.78263 120.3834,99.87214 14.39854,53.08951 -73.43856,127.11194 -34.316,153.90424 l 57.60209,39.44765 c 76.91561,52.67412 -108.34816,55.35155 -200.77017,55.35155 -92.42201,0 58.99284,-26.79526 -9.91549,-78.36463 L 419.61388,684.84323 C 338.57903,624.19866 454.95854,638.46117 412.3545,593.10032 353.45376,530.38826 499.29399,458.6929 545.50499,458.6929 Z"
         sodipodi:nodetypes="sssssssss" />
      <ellipse
         style="fill:#ffffff;fill-opacity:1;stroke-width:0.806819"
         id="path4175-5"
         ry="15.746264"
         rx="14.455283"
         cy="605.60181"
         cx="449.15762" />
      <path
         id="rect318"
         d="m 386.96746,380.61752 c 112.06927,-61.77038 200.11153,-63.85773 302.16987,6.48838 -34.56865,-20.72271 74.67461,45.51076 54.41958,72.0782 -26.68882,35.0063 -20.8912,10.52271 -53.86676,-9.43078 C 551.08001,339.8384 463.49134,385.64682 386.7494,436.29348 c -50.77522,38.11443 -81.60159,72.99429 -75.8918,3.67175 0.99123,-12.03455 104.45156,-79.19302 76.10986,-59.34771 z"
         sodipodi:nodetypes="ccsccsc" />
      <path
         id="rect318-6"
         d="m 361.72177,275.15448 c 132.25835,-61.77038 236.16128,-63.85773 356.60525,6.48838 -40.79613,-20.72271 88.12711,45.51076 64.22318,72.0782 -31.49677,35.0063 -24.65472,10.52271 -63.57077,-9.43078 -163.58051,-109.91492 -266.94813,-64.1065 -357.515,-13.45984 -59.92229,38.11443 -96.30197,72.99429 -89.56357,3.67175 1.16979,-12.03455 123.26832,-79.19302 89.82091,-59.34771 z"
         sodipodi:nodetypes="ccsccsc"
         style="stroke-width:1.08635" />
      <path
         style="fill:#000000;stroke-width:1.52638"
         d="m 196.39589,295.74922 c -2.10162,-2.10163 -4.56068,-6.48463 -5.46457,-9.74 -2.02268,-7.28472 -2.17398,-29.55474 -0.23544,-34.6535 2.64704,-6.96222 27.09985,-23.59332 72.6043,-49.38036 26.4957,-15.01492 41.67078,-23.02327 48.84409,-25.7765 2.51853,-0.96665 13.50845,-5.37694 24.42205,-9.80064 52.17207,-21.14732 100.69919,-34.71736 151.11141,-42.25653 25.25717,-3.77723 93.48621,-3.82269 116.44203,-0.0776 79.94459,13.04245 149.38711,41.94205 218.66126,90.99935 16.67655,11.80969 33.53416,27.17665 39.79429,36.27546 6.04698,8.78897 6.95058,15.14903 3.03989,21.39664 -4.39203,7.01662 -22.752,21.66027 -28.51211,22.74087 -6.04307,1.13369 -8.34274,-0.071 -24.90089,-13.04499 -7.22886,-5.66408 -16.57774,-12.22162 -20.77528,-14.57229 -4.19754,-2.35068 -12.09655,-7.03507 -17.55335,-10.40977 -16.70022,-10.32808 -50.18968,-28.30877 -68.68845,-36.87925 -58.02788,-26.88434 -107.73244,-39.57458 -162.55779,-41.50318 -52.35875,-1.84183 -100.07204,6.99723 -154.49606,28.62096 -32.43413,12.8867 -75.77588,34.90719 -108.04093,54.89195 -42.91718,26.58262 -59.74206,35.16505 -70.92491,36.17908 -8.07848,0.73252 -9.31989,0.43993 -12.76954,-3.00971 z"
         id="path1127" />
      <rect
         style="fill:#ffffff;fill-opacity:1"
         id="rect2977"
         width="28.737852"
         height="25.341497"
         x="463.68872"
         y="682.58191"
         ry="11.834208"
         rx="8.4012814" />
      <ellipse
         style="fill:#ffffff;fill-opacity:1;stroke-width:0.806819"
         id="path4175"
         ry="15.746264"
         rx="14.455283"
         cy="615.27618"
         cx="498.98984" />
    </g>
  </g>
</svg>
